<svg xmlns="http://www.w3.org/2000/svg" xmlns:xlink="http://www.w3.org/1999/xlink" width="107" height="29" viewBox="0 0 107 29"><defs><path id="oalxa" d="M195.52 91.11c-.98 0-1.875-.145-2.685-.435-.81-.29-1.505-.675-2.085-1.155-.38-.32-.41-.74-.09-1.26l1.29-2.07c.22-.34.475-.51.765-.51.29 0 .545.08.765.24.22.16.48.31.78.45a2.242 2.242 0 0 0 1.89 0c.3-.14.53-.43.69-.87l.51-1.5h-1.89a.823.823 0 0 1-.585-.21c-.15-.14-.255-.31-.315-.51l-4.11-12.96c-.1-.3-.105-.57-.015-.81.09-.24.365-.36.825-.36h4.32c.2 0 .36.075.48.225.12.15.2.315.24.495l2.52 9.3 2.22-9.3c.04-.18.125-.345.255-.495.13-.15.335-.225.615-.225h3.93c.34 0 .56.105.66.315.1.21.1.495 0 .855l-4.56 15.69c-.46 1.58-1.225 2.825-2.295 3.735-1.07.91-2.445 1.365-4.125 1.365zm-16.98-14.52c0 .42.08.815.24 1.185.16.37.375.695.645.975s.585.5.945.66c.36.16.75.24 1.17.24.42 0 .815-.08 1.185-.24.37-.16.69-.38.96-.66s.48-.605.63-.975c.15-.37.225-.765.225-1.185 0-.42-.075-.815-.225-1.185a3.03 3.03 0 0 0-.63-.975c-.27-.28-.59-.5-.96-.66-.37-.16-.765-.24-1.185-.24-.42 0-.81.08-1.17.24-.36.16-.675.38-.945.66-.27.28-.485.605-.645.975-.16.37-.24.765-.24 1.185zm.03-6.42c.4-.46.945-.82 1.635-1.08.69-.26 1.465-.39 2.325-.39.96 0 1.88.18 2.76.54.88.36 1.65.875 2.31 1.545.66.67 1.185 1.49 1.575 2.46.39.97.585 2.065.585 3.285 0 1.22-.2 2.32-.6 3.3-.4.98-.935 1.81-1.605 2.49a7.125 7.125 0 0 1-5.115 2.13c-.34 0-.695-.025-1.065-.075-.37-.05-.735-.13-1.095-.24-.36-.11-.695-.25-1.005-.42a2.414 2.414 0 0 1-.765-.645v.24a.67.67 0 0 1-.195.495.67.67 0 0 1-.495.195h-3.75a.67.67 0 0 1-.495-.195.67.67 0 0 1-.195-.495V63.69c0-.2.065-.365.195-.495a.67.67 0 0 1 .495-.195h3.81c.18 0 .34.065.48.195.14.13.21.295.21.495zm-12.27 6.39c0-.92-.255-1.66-.765-2.22-.51-.56-1.205-.84-2.085-.84-.88 0-1.585.28-2.115.84-.53.56-.795 1.3-.795 2.22v6.81c0 .18-.075.33-.225.45a.774.774 0 0 1-.495.18h-3.78a.67.67 0 0 1-.495-.195.67.67 0 0 1-.195-.495V63.69c0-.2.065-.365.195-.495a.67.67 0 0 1 .495-.195h3.78c.18 0 .345.06.495.18.15.12.225.27.225.45v6.69c.46-.4 1.06-.77 1.8-1.11.74-.34 1.66-.51 2.76-.51.98 0 1.865.165 2.655.495.79.33 1.46.785 2.01 1.365a6.16 6.16 0 0 1 1.275 2.025c.3.77.45 1.605.45 2.505v8.28c0 .18-.075.33-.225.45a.774.774 0 0 1-.495.18h-3.75a.774.774 0 0 1-.495-.18.554.554 0 0 1-.225-.45zm-19.59-7.86c.8 0 1.535.06 2.205.18.67.12 1.27.275 1.8.465s.98.395 1.35.615c.37.22.665.43.885.63.54.46.56.97.06 1.53l-1.38 1.5c-.22.24-.46.365-.72.375-.26.01-.56-.085-.9-.285-.42-.24-.91-.475-1.47-.705a4.464 4.464 0 0 0-1.71-.345c-.38 0-.695.06-.945.18s-.375.28-.375.48c0 .22.1.395.3.525.2.13.57.245 1.11.345l2.19.45c.6.12 1.18.285 1.74.495.56.21 1.06.495 1.5.855.44.36.795.805 1.065 1.335.27.53.405 1.165.405 1.905 0 .72-.155 1.395-.465 2.025a5.041 5.041 0 0 1-1.335 1.665c-.58.48-1.3.855-2.16 1.125-.86.27-1.83.405-2.91.405-1.2 0-2.27-.14-3.21-.42-.94-.28-1.73-.62-2.37-1.02-.84-.52-1.32-1.02-1.44-1.5-.12-.48.03-.88.45-1.2l1.71-1.26c.38-.28.7-.385.96-.315s.5.205.72.405c.44.36.935.675 1.485.945.55.27 1.155.405 1.815.405.46 0 .815-.08 1.065-.24.25-.16.375-.34.375-.54 0-.28-.145-.49-.435-.63-.29-.14-.725-.27-1.305-.39l-2.52-.54c-1.24-.28-2.23-.78-2.97-1.5-.74-.72-1.11-1.7-1.11-2.94a4.451 4.451 0 0 1 1.71-3.525c.56-.45 1.245-.81 2.055-1.08s1.735-.405 2.775-.405zm-24.69 7.83c0-1.22.21-2.315.63-3.285.42-.97.975-1.79 1.665-2.46a7.26 7.26 0 0 1 2.385-1.545c.9-.36 1.82-.54 2.76-.54.9 0 1.68.15 2.34.45.66.3 1.15.68 1.47 1.14v-.45c0-.2.07-.365.21-.495.14-.13.3-.195.48-.195h3.75c.2 0 .365.065.495.195a.67.67 0 0 1 .195.495v13.47a.67.67 0 0 1-.195.495.67.67 0 0 1-.495.195h-3.75a.67.67 0 0 1-.495-.195.67.67 0 0 1-.195-.495v-.45c-.32.46-.815.84-1.485 1.14-.67.3-1.455.45-2.355.45-.94 0-1.855-.185-2.745-.555a7.386 7.386 0 0 1-2.37-1.575c-.69-.68-1.245-1.51-1.665-2.49-.42-.98-.63-2.08-.63-3.3zm5.22.06c0 .42.08.815.24 1.185.16.37.375.695.645.975s.585.5.945.66c.36.16.75.24 1.17.24.42 0 .815-.08 1.185-.24.37-.16.69-.38.96-.66s.48-.605.63-.975c.15-.37.225-.765.225-1.185 0-.42-.075-.815-.225-1.185a3.03 3.03 0 0 0-.63-.975c-.27-.28-.59-.5-.96-.66-.37-.16-.765-.24-1.185-.24-.42 0-.81.08-1.17.24-.36.16-.675.38-.945.66-.27.28-.485.605-.645.975-.16.37-.24.765-.24 1.185zm-15.93 7.86c-1.58 0-3.06-.285-4.44-.855-1.38-.57-2.58-1.35-3.6-2.34-1.02-.99-1.82-2.15-2.4-3.48-.58-1.33-.87-2.755-.87-4.275 0-1.52.29-2.945.87-4.275.58-1.33 1.38-2.49 2.4-3.48 1.02-.99 2.22-1.77 3.6-2.34 1.38-.57 2.86-.855 4.44-.855 1.16 0 2.27.15 3.33.45 1.06.3 2.03.725 2.91 1.275a9.768 9.768 0 0 1 2.325 2.025c.67.8 1.195 1.7 1.575 2.7.04.1.065.235.075.405.01.17-.125.295-.405.375l-4.2 1.14c-.28.08-.47.055-.57-.075a2.11 2.11 0 0 1-.21-.315 6.73 6.73 0 0 0-1.845-2.1c-.77-.58-1.755-.87-2.955-.87-.84 0-1.605.155-2.295.465-.69.31-1.29.735-1.8 1.275-.51.54-.905 1.17-1.185 1.89s-.42 1.49-.42 2.31c0 .82.14 1.59.42 2.31.28.72.675 1.35 1.185 1.89.51.54 1.11.965 1.8 1.275.69.31 1.455.465 2.295.465 1.2 0 2.185-.29 2.955-.87a6.73 6.73 0 0 0 1.845-2.1c.04-.08.11-.185.21-.315.1-.13.29-.155.57-.075l4.2 1.14c.28.08.415.205.405.375-.01.17-.035.305-.075.405-.38 1-.905 1.9-1.575 2.7a9.768 9.768 0 0 1-2.325 2.025c-.88.55-1.85.975-2.91 1.275-1.06.3-2.17.45-3.33.45z"/></defs><g><g transform="translate(-100 -62)"><use xlink:href="#oalxa"/></g></g></svg>