<svg xmlns="http://www.w3.org/2000/svg" xmlns:xlink="http://www.w3.org/1999/xlink" width="221" height="303" viewBox="0 0 221 303"><defs><path id="6hnxa" d="M995.475 226.16H1160.317l13.263 209.371-192 .629z"/><path id="6hnxb" d="M1082.08 368.28c0-10.75 9-19.75 20.375-19.75 11.25 0 20.375 9 20.375 19.75 0 10.875-9.125 19.625-20.375 19.625-11.375 0-20.375-8.75-20.375-19.625z"/><path id="6hnxc" d="M1094.21 368.16c0 4.625 3.625 8.25 8.25 8.25s8.375-3.625 8.375-8.25c0-4.5-3.75-8.25-8.375-8.25s-8.25 3.75-8.25 8.25z"/><path id="6hnxd" d="M1053.955 335.66c-11.375 0-20.375-8.75-20.375-19.75 0-10.75 9-19.75 20.375-19.75 11.25 0 20.5 9 20.5 19.75 0 11-9.25 19.75-20.5 19.75z"/><path id="6hnxe" d="M1053.96 324.16c4.625 0 8.375-3.625 8.375-8.25 0-4.5-3.75-8.25-8.375-8.25s-8.25 3.75-8.25 8.25c0 4.625 3.625 8.25 8.25 8.25z"/><path id="6hnxf" d="M1071.71 295.03a2 2 0 0 1 2-2h9a2 2 0 0 1 2 2v94a2 2 0 0 1-2 2h-9a2 2 0 0 1-2-2z"/><path id="6hnxg" d="M1001.785 232.014h33.398v19.52h-6.931c-3.781 0-6.302 2.518-6.302 6.296 0 3.778 2.52 6.297 6.302 6.297h26.466c3.78 0 6.302-2.519 6.302-6.297 0-3.778-2.521-6.296-6.302-6.296h-6.932v-18.89h61.125v18.89h-6.932c-3.78 0-6.301 2.518-6.301 6.296 0 3.778 2.52 6.297 6.301 6.297h26.467c3.78 0 6.301-2.519 6.301-6.297 0-3.778-2.52-6.296-6.301-6.296h-6.932v-18.89h33.398l12.603 197.08H989.182zm75.614-68.631c16.383 0 30.245 13.852 30.245 30.223v26.445h-60.491v-26.445c0-17 13.863-30.223 30.246-30.223zm43.478 56.038v-26.445c0-23.927-19.534-42.816-42.848-42.816-23.945 0-42.848 19.52-42.848 42.816v26.445h-33.396c-6.932 0-12.603 5.667-12.603 11.964l-12.602 197.71c0 6.926 5.671 12.593 12.602 12.593h178.323c6.931 0 12.602-5.667 12.602-12.593v-.63l-12.602-197.08c-.63-6.297-5.671-11.964-13.232-11.964z"/></defs><g><g transform="rotate(9 1547.818 -5846.566)"><g><use fill="#fff" xlink:href="#6hnxa"/></g><g><use xlink:href="#6hnxb"/></g><g><use fill="#ffd500" xlink:href="#6hnxc"/></g><g><use xlink:href="#6hnxd"/></g><g><use fill="#ffd500" xlink:href="#6hnxe"/></g><g transform="rotate(35 1071 341.5)"><use xlink:href="#6hnxf"/></g><g><use fill="#28150b" xlink:href="#6hnxg"/></g></g></g></svg>