<?xml version="1.0" encoding="utf-8"?>
<svg xmlns="http://www.w3.org/2000/svg" xmlns:xlink="http://www.w3.org/1999/xlink">

    <symbol viewBox="0 0 13 8" id="ic-arrow-bottom">
        <defs>
            <path id="clip-path" class="cls-1" d="M11.337,8,6.5,3.206,1.663,8,0,6.4,6.5,0,13,6.4Z"
                  transform="translate(13 8) rotate(180)"/>
        </defs>
        <use xlink:href="#clip-path" transform="translate(0 0)"/>
    </symbol>

    <symbol viewBox="0 0 42.188 22.5" id="ic-arrow-left">
        <defs>
            <path id="bMask" class="bcls-1"
                  d="M-45 12.656h36.816l-7.861 7.861 1.983 1.983 11.25-11.25L-14.062 0l-1.983 1.99 7.861 7.853H-45z"
                  transform="translate(45)"/>
        </defs>
        <use xlink:href="#bMask" transform="translate(-8 -3.75)"/>
    </symbol>

    <symbol viewBox="0 0 32.5 41.251" id="ic-bill">
        <defs>
            <path id="cMask" class="ccls-1"
                  d="M9.21 41.238l-.467-.011H7.706l-.367-.388A3.028 3.028 0 0 0 5 39.951a2.952 2.952 0 0 0-2.239.879l-.367.369H0V10h10v2.5H2.5v25.486A5.741 5.741 0 0 1 5 37.45a5.609 5.609 0 0 1 3.746 1.277A5.649 5.649 0 0 1 12.5 37.45a5.607 5.607 0 0 1 3.746 1.277A5.643 5.643 0 0 1 20 37.45a5.609 5.609 0 0 1 3.75 1.28 5.609 5.609 0 0 1 3.75-1.28 5.764 5.764 0 0 1 2.5.514V12.5h-7.5V10h10v31.2h-2.41l-.37-.387a2.767 2.767 0 0 0-2.221-.861 3.02 3.02 0 0 0-2.356.9l-.37.4h-1.048l-1.015-.022-.361-.385A3.022 3.022 0 0 0 20 39.951a3.03 3.03 0 0 0-2.337.88l-.362.381-.525.008-.532.007h-1.037l-.367-.388a3.032 3.032 0 0 0-2.34-.883 3.023 3.023 0 0 0-2.349.893l-.381.407zM10 31.25v-2.5h12.5v2.5zm-2.5-7.5v-2.5H25v2.5zm7.5-7.5V3.725l-2.96 2.524-1.58-2.029L15.408 0h1.68l4.951 4.22-1.579 2.031-2.96-2.524V16.25z"/>
        </defs>
        <path id="cMask" class="ccls-1"
              d="M9.21 41.238l-.467-.011H7.706l-.367-.388A3.028 3.028 0 0 0 5 39.951a2.952 2.952 0 0 0-2.239.879l-.367.369H0V10h10v2.5H2.5v25.486A5.741 5.741 0 0 1 5 37.45a5.609 5.609 0 0 1 3.746 1.277A5.649 5.649 0 0 1 12.5 37.45a5.607 5.607 0 0 1 3.746 1.277A5.643 5.643 0 0 1 20 37.45a5.609 5.609 0 0 1 3.75 1.28 5.609 5.609 0 0 1 3.75-1.28 5.764 5.764 0 0 1 2.5.514V12.5h-7.5V10h10v31.2h-2.41l-.37-.387a2.767 2.767 0 0 0-2.221-.861 3.02 3.02 0 0 0-2.356.9l-.37.4h-1.048l-1.015-.022-.361-.385A3.022 3.022 0 0 0 20 39.951a3.03 3.03 0 0 0-2.337.88l-.362.381-.525.008-.532.007h-1.037l-.367-.388a3.032 3.032 0 0 0-2.34-.883 3.023 3.023 0 0 0-2.349.893l-.381.407zM10 31.25v-2.5h12.5v2.5zm-2.5-7.5v-2.5H25v2.5zm7.5-7.5V3.725l-2.96 2.524-1.58-2.029L15.408 0h1.68l4.951 4.22-1.579 2.031-2.96-2.524V16.25z"/>
    </symbol>

    <symbol viewBox="0 0 40 40" id="ic-cart">
        <path id="dMask" class="dcls-1"
              d="M30 40a2.5 2.5 0 1 1 2.5-2.5A2.5 2.5 0 0 1 30 40zm-12.5 0a2.5 2.5 0 1 1 2.5-2.5 2.5 2.5 0 0 1-2.5 2.5zm17.125-10h-22.25L6.75 11.625 6.25 10 4 2.5H0V0h6l2.75 10h30L40 12.25 34.625 30zM9.5 12.5l4.626 15h18.5l4.625-15H9.5z"/>

    </symbol>

    <symbol viewBox="0 0 12 12" id="ic-close">
        <g transform="translate(-10 -10)">
            <path id="eMask-2" class="ecls-1"
                  d="M6 4.5L1.5 0 0 1.5 4.5 6 0 10.5 1.5 12 6 7.5l4.5 4.5 1.5-1.5L7.5 6 12 1.5 10.5 0z"
                  transform="translate(10 10)"/>
            <path id="eMask" class="ecls-1"
                  d="M6 4.5L1.5 0 0 1.5 4.5 6 0 10.5 1.5 12 6 7.5l4.5 4.5 1.5-1.5L7.5 6 12 1.5 10.5 0z"
                  transform="translate(10 10)"/>
        </g>
    </symbol>

    <symbol viewBox="0 0 18 18" id="ic-login">
        <defs>
            <path id="fa"
                  d="M1107.75 18.25h8.25l-2.925-2.025.825-1.2 4.8 3.3v1.35l-4.8 3.3-.825-1.2L1116 19.75h-8.25zm6 8.25h9v-15h-9V10h10.5v18h-10.5z"/>
        </defs>
        <g transform="translate(-1107 -10)">
            <path id="fa"
                  d="M1107.75 18.25h8.25l-2.925-2.025.825-1.2 4.8 3.3v1.35l-4.8 3.3-.825-1.2L1116 19.75h-8.25zm6 8.25h9v-15h-9V10h10.5v18h-10.5z"/>
        </g>
    </symbol>

    <symbol viewBox="0 0 15 13" id="ic-ok">
        <defs>
            <path id="gMask" class="gcls-1"
                  d="M13.17 0L5.393 9.442 1.769 5.727 0 7.481S5.355 13 5.523 13C5.722 12.992 15 1.685 15 1.685z"
                  transform="translate(13 13)"/>
        </defs>
        <use xlink:href="#gMask" transform="translate(-13 -13)"/>
    </symbol>

    <symbol viewBox="0 0 16 16" id="ic-ok-round">
        <path d="M8 16a8 8 0 1 1 8-8 8.009 8.009 0 0 1-8 8zM8 1a7 7 0 1 0 7 7 7.008 7.008 0 0 0-7-7zm-.625 10.6L4.09 8.315l.71-.707 2.422 2.423 3.939-5.909.832.554L7.375 11.6z"/>
    </symbol>

    <symbol viewBox="0 0 16 16" id="ic-rub">
        <defs>
            <path id="ia"
                  d="M109 913h2a1.5 1.5 0 1 1 0 3h-2zm-1 7.5h1V919h3v-1h-3v-1h2a2.5 2.5 0 0 0 0-5h-3v4h-1v1h1v1h-1v1h1zm2-11.5a7 7 0 1 1 0 14 7 7 0 0 1 0-14zm0 15a8 8 0 1 0 0-16 8 8 0 0 0 0 16z"/>
        </defs>
        <use xlink:href="#ia" transform="translate(-102 -908)"/>
    </symbol>

    <symbol viewBox="0 0 22 24" id="ic-search">
        <defs>
            <path id="ja"
                  d="M1148.02 66a8 8 0 1 1 0 16 8 8 0 0 1 0-16zm0 18a9.94 9.94 0 0 0 5.7-1.8l4.83 5.8 1.47-1.28-4.78-5.82a10 10 0 1 0-7.22 3.1z"/>
        </defs>
        <use xlink:href="#ja" transform="translate(-1138 -64)"/>
    </symbol>

    <symbol viewBox="0 0 16 16.001" id="ic-star">
        <path d="M3.639 16l-1.119-.66.94-5.17L0 6.72V5.56L5.16 5l2.26-5h1.16l2.26 5 5.16.56v1.16l-3.46 3.45.941 5.17-1.121.66L8 13.1 3.64 16zM8 11.9l4.359 2.96-.9-5 3.39-3.38L10.16 6 8 1.15 5.84 6l-4.7.45L4.53 9.8l-.9 5L8 11.9z"/>
    </symbol>

    <symbol viewBox="0 0 18 8" id="ic-infinity">
        <defs>
            <path id="7qnua"
                  d="M115 823c-2.23 0-3.91-2.24-4.41-3 .5-.76 2.17-3 4.41-3a3 3 0 0 1 0 6zm-10 0a3 3 0 0 1 0-6c2.23 0 3.91 2.24 4.41 3-.5.76-2.17 3-4.41 3zm10-7c-2.43 0-4.22 2-5 3.09-.78-1.09-2.57-3.09-5-3.09a4 4 0 1 0 0 8c2.43 0 4.22-2 5-3.09.78 1.09 2.57 3.09 5 3.09a4 4 0 1 0 0-8z"/>
        </defs>
        <g>
            <g transform="translate(-101 -816)">
                <use xlink:href="#7qnua"/>
            </g>
        </g>
    </symbol>

    <symbol id="ic-cart-small" viewBox="0 0 16 14">
        <g transform="translate(-102 -878)">
            <path id="m4y1a" d="M107.986 889.994a1.003 1.003 0 1 0 0 2.006 1.003 1.003 0 0 0 0-2.006m7.005 0a1.003 1.003 0 1 0 0 2.006 1.003 1.003 0 0 0 0-2.006m1.474-6.732a2.35 2.35 0 0 1-1.997 1.911l-7.792 1.063-1.263-5.294h11.517zm1.147-3.262h-12.423l-.128-.534a1.873 1.873 0 0 0-1.835-1.466H102v.942h1.226c.442 0 .819.301.919.738l1.852 7.762c.198.872.97 1.505 1.835 1.505h8.156v-.942h-8.156c-.423 0-.817-.332-.919-.777l-.017-.073 7.699-1.05a3.284 3.284 0 0 0 2.794-2.666l.599-2.986z"/>
        </g>
    </symbol>




    <symbol id="ic-piggy" viewBox="0 0 59 78">
        <defs>
            <path id="egiva"
                  d="M652.013 273.497l.837-12.54.263-.038 13.68 11.46-.071.264-13.81 1.619zm15.393-.934l-.193.156.006.017-.013-.01-.645.52.16-.602.34-.04-.269-.225.136-.51.242.722zm-13.807-11.716l-.486.072-.247-.207-.016.245-.79.117.838-.834-.028.409zm-27.502 13.415l-13.809-1.618-.07-.265 13.679-11.46.263.038.837 12.54zm.015-14.022l.837.834-.789-.117-.016-.245-.247.207-.486-.072.729-.198zm-14.32 12.496l.005-.017-.193-.156.236.028.242-.722.136.51-.269.225.34.04.16.602-.645-.52zM648 281.661c0-.99-.888-1.794-1.984-1.794s-1.985.803-1.985 1.794c0 .99.889 1.794 1.985 1.794s1.984-.803 1.984-1.794zm-12.5 0c0-.99-.89-1.794-1.985-1.794-1.096 0-1.984.803-1.984 1.794 0 .99.888 1.794 1.984 1.794s1.984-.803 1.984-1.794zm7.52 11.256c0-.5-.449-.907-1.001-.907-.553 0-1 .406-1 .907s.447.907 1 .907c.552 0 1-.406 1-.907zm-4.003 0c0-.5-.448-.907-1-.907-.553 0-1.001.406-1.001.907s.448.907 1 .907c.553 0 1.001-.406 1.001-.907zm4.652 7.791c-2.026.488-3.451 2-3.912 3.963l1.958.37c.313-1.333 1.219-2.293 2.472-2.595 1.338-.323 2.631.093 4.091 1.409l1.417-1.27c-1.93-1.74-3.929-2.382-6.026-1.877zm-9.749-8.603c0-2.985 2.663-5.402 5.945-5.402 3.28 0 5.944 2.417 5.944 5.402 0 2.985-2.663 5.402-5.944 5.402-3.282 0-5.945-2.417-5.945-5.402zm13.89 0c0-3.975-3.555-7.2-7.945-7.2-4.39 0-7.946 3.225-7.946 7.2s3.555 7.201 7.946 7.201c4.39 0 7.945-3.226 7.945-7.2zm14.802-17.17c1.694 3.093 2.643 6.57 2.643 10.234 0 12.716-11.37 23.022-25.39 23.022-14.021 0-25.39-10.306-25.39-23.022 0-3.637.922-7.086 2.575-10.156l9.722 1.14 2.269-1.928-.644-9.64a26.96 26.96 0 0 1 7.698-2.19c-.004.86-.007 2.155-.009 3.888v.9h6.863v-.9c0-1.732.002-3.055.006-3.967l.232.026c2.632.312 5.13.986 7.434 1.964l-.662 9.919 2.27 1.928zm2.087-.241l3.639-.427.662-2.49L653.758 259l-2.81.415-.198 2.968a29.462 29.462 0 0 0-8.71-1.958l-1.068-.076-.011.964c-.008.695-.012 2.052-.013 4.072h-2.86c.003-2.154.008-3.488.016-3.995l.016-1.01-1.117.102a29.26 29.26 0 0 0-8.735 2.16l-.215-3.227-2.811-.415L610 271.778l.662 2.49 4.305.504a22.96 22.96 0 0 0-2.494 10.402c0 13.71 12.262 24.826 27.392 24.826 15.13 0 27.39-11.117 27.39-24.826 0-3.732-.913-7.287-2.556-10.48z"/>
            <path id="egivb" d="M629 240c0-4.418 4.03-8 9-8s9 3.582 9 8-4.03 8-9 8-9-3.582-9-8z"/>
            <path id="egivc"
                  d="M640 251c-4.97 0-9-3.806-9-8.5s4.03-8.5 9-8.5 9 3.806 9 8.5-4.03 8.5-9 8.5zm0-1.862c3.882 0 7.028-2.972 7.028-6.638s-3.146-6.638-7.028-6.638c-3.882 0-7.028 2.972-7.028 6.638s3.146 6.638 7.028 6.638z"/>
            <path id="egivd"
                  d="M639.84 244.093V245h-1.126v-.907H638v-.77h.714v-.685H638v-.856h.714V239h1.82c.496 0 .904.06 1.223.18.32.12.573.272.759.458.186.185.313.386.381.603.069.217.103.42.103.608s-.038.39-.113.603c-.075.214-.207.41-.396.587-.189.176-.442.323-.758.44-.316.117-.716.176-1.199.176h-.694v.667h1.281v.77zm.71-2.311c.137 0 .281-.013.434-.039a1.46 1.46 0 0 0 .428-.141.877.877 0 0 0 .326-.287.821.821 0 0 0 .127-.475c0-.2-.038-.362-.112-.488a.817.817 0 0 0-.297-.295 1.225 1.225 0 0 0-.414-.145 2.84 2.84 0 0 0-.472-.039h-.73v1.909z"/>
        </defs>
        <g>
            <g transform="translate(-610 -232)">
                <g>
                    <use fill="#333" xlink:href="#egiva"/>
                </g>
                <g>
                    <use fill="#ffd500" xlink:href="#egivb"/>
                </g>
                <g>
                    <use fill="#333" xlink:href="#egivc"/>
                </g>
                <g>
                    <use fill="#333" xlink:href="#egivd"/>
                </g>
            </g>
        </g>
    </symbol>







</svg>