<svg xmlns="http://www.w3.org/2000/svg" xmlns:xlink="http://www.w3.org/1999/xlink" viewBox="0 0 32.5 41.251">
  <defs>
    <style>
      .cls-1 {
        fill: #333;
      }

      .cls-2 {
        clip-path: url(#clip-path);
      }

      .cls-3 {
        fill: rgba(0,0,0,0);
      }
    </style>
    <clipPath id="clip-path">
      <path id="Mask" class="cls-1" d="M9.21,41.238l-.467-.011-1.037,0-.367-.388A3.028,3.028,0,0,0,5,39.951a2.952,2.952,0,0,0-2.239.879l-.367.369H0V10H10v2.5H2.5V37.986A5.741,5.741,0,0,1,5,37.45a5.609,5.609,0,0,1,3.746,1.277A5.649,5.649,0,0,1,12.5,37.45a5.607,5.607,0,0,1,3.746,1.277A5.643,5.643,0,0,1,20,37.45a5.609,5.609,0,0,1,3.75,1.28,5.609,5.609,0,0,1,3.75-1.28,5.764,5.764,0,0,1,2.5.514V12.5H22.5V10h10V41.2H30.09l-.37-.387a2.767,2.767,0,0,0-2.221-.861,3.02,3.02,0,0,0-2.356.9l-.37.4H23.725L22.71,41.23l-.361-.385A3.022,3.022,0,0,0,20,39.951a3.03,3.03,0,0,0-2.337.88l-.362.381-.525.008-.532.007-1.037,0-.367-.388a3.032,3.032,0,0,0-2.34-.883,3.023,3.023,0,0,0-2.349.893l-.381.407ZM10,31.25v-2.5H22.5v2.5Zm-2.5-7.5v-2.5H25v2.5Zm7.5-7.5V3.725L12.04,6.249,10.46,4.22,15.408,0h1.68l4.951,4.22L20.46,6.251,17.5,3.727V16.25Z"/>
    </clipPath>
  </defs>
  <g class="cls-2">
    <g id="_Color" data-name="↳Color" transform="translate(-8.75 -3.75)">
      <rect id="_Color_background" data-name="↳Color background" class="cls-3" width="50" height="50"/>
      <rect id="Rectangle" class="cls-1" width="50" height="50"/>
    </g>
  </g>
</svg>
