<svg xmlns="http://www.w3.org/2000/svg" xmlns:xlink="http://www.w3.org/1999/xlink" width="18" height="8"
     viewBox="0 0 18 8">
    <defs>
        <path id="7qnua"
              d="M115 823c-2.23 0-3.91-2.24-4.41-3 .5-.76 2.17-3 4.41-3a3 3 0 0 1 0 6zm-10 0a3 3 0 0 1 0-6c2.23 0 3.91 2.24 4.41 3-.5.76-2.17 3-4.41 3zm10-7c-2.43 0-4.22 2-5 3.09-.78-1.09-2.57-3.09-5-3.09a4 4 0 1 0 0 8c2.43 0 4.22-2 5-3.09.78 1.09 2.57 3.09 5 3.09a4 4 0 1 0 0-8z"/>
    </defs>
    <g>
        <g transform="translate(-101 -816)">
            <use xlink:href="#7qnua"/>
        </g>
    </g>
</svg>