<svg xmlns="http://www.w3.org/2000/svg" xmlns:xlink="http://www.w3.org/1999/xlink" width="59" height="78"
     viewBox="0 0 59 78">
    <defs>
        <path id="egiva"
              d="M652.013 273.497l.837-12.54.263-.038 13.68 11.46-.071.264-13.81 1.619zm15.393-.934l-.193.156.006.017-.013-.01-.645.52.16-.602.34-.04-.269-.225.136-.51.242.722zm-13.807-11.716l-.486.072-.247-.207-.016.245-.79.117.838-.834-.028.409zm-27.502 13.415l-13.809-1.618-.07-.265 13.679-11.46.263.038.837 12.54zm.015-14.022l.837.834-.789-.117-.016-.245-.247.207-.486-.072.729-.198zm-14.32 12.496l.005-.017-.193-.156.236.028.242-.722.136.51-.269.225.34.04.16.602-.645-.52zM648 281.661c0-.99-.888-1.794-1.984-1.794s-1.985.803-1.985 1.794c0 .99.889 1.794 1.985 1.794s1.984-.803 1.984-1.794zm-12.5 0c0-.99-.89-1.794-1.985-1.794-1.096 0-1.984.803-1.984 1.794 0 .99.888 1.794 1.984 1.794s1.984-.803 1.984-1.794zm7.52 11.256c0-.5-.449-.907-1.001-.907-.553 0-1 .406-1 .907s.447.907 1 .907c.552 0 1-.406 1-.907zm-4.003 0c0-.5-.448-.907-1-.907-.553 0-1.001.406-1.001.907s.448.907 1 .907c.553 0 1.001-.406 1.001-.907zm4.652 7.791c-2.026.488-3.451 2-3.912 3.963l1.958.37c.313-1.333 1.219-2.293 2.472-2.595 1.338-.323 2.631.093 4.091 1.409l1.417-1.27c-1.93-1.74-3.929-2.382-6.026-1.877zm-9.749-8.603c0-2.985 2.663-5.402 5.945-5.402 3.28 0 5.944 2.417 5.944 5.402 0 2.985-2.663 5.402-5.944 5.402-3.282 0-5.945-2.417-5.945-5.402zm13.89 0c0-3.975-3.555-7.2-7.945-7.2-4.39 0-7.946 3.225-7.946 7.2s3.555 7.201 7.946 7.201c4.39 0 7.945-3.226 7.945-7.2zm14.802-17.17c1.694 3.093 2.643 6.57 2.643 10.234 0 12.716-11.37 23.022-25.39 23.022-14.021 0-25.39-10.306-25.39-23.022 0-3.637.922-7.086 2.575-10.156l9.722 1.14 2.269-1.928-.644-9.64a26.96 26.96 0 0 1 7.698-2.19c-.004.86-.007 2.155-.009 3.888v.9h6.863v-.9c0-1.732.002-3.055.006-3.967l.232.026c2.632.312 5.13.986 7.434 1.964l-.662 9.919 2.27 1.928zm2.087-.241l3.639-.427.662-2.49L653.758 259l-2.81.415-.198 2.968a29.462 29.462 0 0 0-8.71-1.958l-1.068-.076-.011.964c-.008.695-.012 2.052-.013 4.072h-2.86c.003-2.154.008-3.488.016-3.995l.016-1.01-1.117.102a29.26 29.26 0 0 0-8.735 2.16l-.215-3.227-2.811-.415L610 271.778l.662 2.49 4.305.504a22.96 22.96 0 0 0-2.494 10.402c0 13.71 12.262 24.826 27.392 24.826 15.13 0 27.39-11.117 27.39-24.826 0-3.732-.913-7.287-2.556-10.48z"/>
        <path id="egivb" d="M629 240c0-4.418 4.03-8 9-8s9 3.582 9 8-4.03 8-9 8-9-3.582-9-8z"/>
        <path id="egivc"
              d="M640 251c-4.97 0-9-3.806-9-8.5s4.03-8.5 9-8.5 9 3.806 9 8.5-4.03 8.5-9 8.5zm0-1.862c3.882 0 7.028-2.972 7.028-6.638s-3.146-6.638-7.028-6.638c-3.882 0-7.028 2.972-7.028 6.638s3.146 6.638 7.028 6.638z"/>
        <path id="egivd"
              d="M639.84 244.093V245h-1.126v-.907H638v-.77h.714v-.685H638v-.856h.714V239h1.82c.496 0 .904.06 1.223.18.32.12.573.272.759.458.186.185.313.386.381.603.069.217.103.42.103.608s-.038.39-.113.603c-.075.214-.207.41-.396.587-.189.176-.442.323-.758.44-.316.117-.716.176-1.199.176h-.694v.667h1.281v.77zm.71-2.311c.137 0 .281-.013.434-.039a1.46 1.46 0 0 0 .428-.141.877.877 0 0 0 .326-.287.821.821 0 0 0 .127-.475c0-.2-.038-.362-.112-.488a.817.817 0 0 0-.297-.295 1.225 1.225 0 0 0-.414-.145 2.84 2.84 0 0 0-.472-.039h-.73v1.909z"/>
    </defs>
    <g>
        <g transform="translate(-610 -232)">
            <g>
                <use fill="#333" xlink:href="#egiva"/>
            </g>
            <g>
                <use fill="#ffd500" xlink:href="#egivb"/>
            </g>
            <g>
                <use fill="#333" xlink:href="#egivc"/>
            </g>
            <g>
                <use fill="#333" xlink:href="#egivd"/>
            </g>
        </g>
    </g>
</svg>